<svg xmlns="http://www.w3.org/2000/svg" xmlns:xlink="http://www.w3.org/1999/xlink" version="1.1" x="0px" y="0px" viewBox="0 0 90 112.5" enable-background="new 0 0 90 90" xml:space="preserve"><g><path class="bubble-icon" fill="#5BAA57" d="M32.138,9.355C27.48,2.696,18.305,1.073,11.645,5.731C4.985,10.39,3.362,19.565,8.02,26.224   c4.659,6.661,13.833,8.282,20.494,3.624C35.173,25.19,36.797,16.015,32.138,9.355z M24.364,23.917   c-3.384,2.367-8.046,1.542-10.413-1.842c-2.368-3.385-1.542-8.046,1.841-10.413c3.385-2.368,8.047-1.544,10.414,1.841   C28.573,16.888,27.749,21.55,24.364,23.917z"/></g><g><g><path class="bubble-icon" fill="#5BAA57" d="M29.281,40.763C16.709,38.539,4.715,46.929,2.493,59.5C0.269,72.071,8.659,84.064,21.229,86.288    c12.572,2.224,24.566-6.165,26.789-18.737C50.241,54.98,41.853,42.985,29.281,40.763z M22.475,79.249    c-8.684-1.536-14.478-9.82-12.942-18.505c1.536-8.683,9.82-14.478,18.503-12.941c8.684,1.535,14.479,9.819,12.943,18.504    C39.443,74.989,31.158,80.784,22.475,79.249z"/></g><g><path class="bubble-icon" fill="#5BAA57" d="M30.769,74.265c-1.12,0-2.213-0.563-2.844-1.586c-0.969-1.569-0.482-3.626,1.086-4.596    c1.171-0.723,1.991-1.857,2.307-3.194c0.316-1.335,0.092-2.716-0.631-3.887c-0.969-1.568-0.483-3.626,1.085-4.595    c1.569-0.971,3.626-0.484,4.596,1.086c1.661,2.688,2.175,5.86,1.448,8.934c-0.727,3.072-2.608,5.679-5.297,7.339    C31.973,74.103,31.367,74.265,30.769,74.265z"/></g></g><g><g><path class="bubble-icon" fill="#5BAA57" d="M67.579,8.184C55.008,5.96,43.014,14.35,40.791,26.921c-2.224,12.572,6.165,24.565,18.737,26.788    c12.572,2.225,24.565-6.165,26.789-18.737C88.54,22.401,80.152,10.407,67.579,8.184z M60.773,46.669    c-8.684-1.535-14.479-9.82-12.943-18.503c1.536-8.684,9.82-14.478,18.504-12.942s14.478,9.82,12.942,18.504    C77.74,42.41,69.456,48.205,60.773,46.669z"/></g><g><path class="bubble-icon" fill="#5BAA57" d="M69.067,41.685c-1.12,0-2.213-0.562-2.844-1.585c-0.97-1.569-0.483-3.626,1.086-4.595    c1.172-0.723,1.99-1.857,2.307-3.194c0.316-1.336,0.093-2.716-0.631-3.887c-0.97-1.568-0.483-3.626,1.086-4.595    c1.567-0.969,3.626-0.484,4.596,1.085c1.661,2.688,2.176,5.861,1.447,8.935c-0.727,3.072-2.606,5.678-5.295,7.338    C70.271,41.524,69.665,41.685,69.067,41.685z"/></g></g>></svg>